# URRC; metres; Z up; static concave triangle mesh
mtllib urrc_default.mtl
o URRC
usemtl URRCDefault
v 1.19089653 -0.14963440 1.22351417
v 1.19609528 -0.09990541 1.22390705
v -1.19089653 0.14963440 1.22390796
v -1.19609528 0.09990541 1.22350932
v 0.69213843 -1.51302157 1.21171893
v 0.69496765 -1.48818218 1.21194070
v 0.19817977 -1.43159771 1.21195110
v 0.19535055 -1.45643710 1.21172935
v 0.55916492 -2.68047309 1.20088311
v 0.69496765 -1.48818218 1.21194070
v 0.67012826 -1.48535295 1.21194122
v 0.53432553 -2.67764387 1.20088258
v 0.08721643 -2.62671784 1.20087308
v 0.22301917 -1.43442693 1.21195058
v 0.19817977 -1.43159771 1.21195110
v 0.06237704 -2.62388862 1.20087255
v -0.68248339 -2.96469225 1.19672888
v -0.67950583 -2.93987020 1.19697683
v -1.17594680 -2.88031889 1.19698805
v -1.17892437 -2.90514094 1.19673832
v -0.82242898 -4.13132854 1.18470827
v -0.67950583 -2.93987020 1.19697683
v -0.70432788 -2.93689264 1.19697739
v -0.84725103 -4.12835097 1.18470773
v -1.29404791 -4.07475479 1.18469792
v -1.15112475 -2.88329645 1.19698749
v -1.17594680 -2.88031889 1.19698805
v -1.31886996 -4.07177723 1.18469738
v 0.31670559 -4.70005156 1.18016756
v 0.31979996 -4.67524380 1.18043707
v -0.17635522 -4.61335646 1.18044502
v -0.17944958 -4.63816422 1.18017553
v 0.17127034 -5.86601622 1.16715532
v 0.31979996 -4.67524380 1.18043707
v 0.29499220 -4.67214943 1.18043746
v 0.14646258 -5.86292185 1.16715494
v -0.30007708 -5.80722325 1.16714815
v -0.15154746 -4.61645083 1.18044462
v -0.17635522 -4.61335646 1.18044502
v -0.32488483 -5.80412888 1.16714777
v -1.07289087 -6.13790735 1.16225712
v -1.06971119 -6.11311038 1.16254720
v -1.56565055 -6.04951676 1.16255526
v -1.56883023 -6.07431373 1.16226316
v -1.22233588 -7.30336485 1.14828016
v -1.06971119 -6.11311038 1.16254720
v -1.09450816 -6.10993070 1.16254751
v -1.24713284 -7.30018517 1.14827985
v -1.69347827 -7.24295091 1.14827418
v -1.54085358 -6.05269644 1.16255490
v -1.56565055 -6.04951676 1.16255526
v -1.71827524 -7.23977123 1.14827387
v -0.08702533 -7.87928599 1.14307085
v -0.08379177 -7.85449599 1.14337936
v -0.57959178 -7.78982487 1.14338309
v -0.58282533 -7.81461487 1.14307459
v -0.23900246 -9.04441600 1.12828658
v -0.08379177 -7.85449599 1.14337936
v -0.10858177 -7.85126243 1.14337955
v -0.26379246 -9.04118245 1.12828658
v -0.71001246 -8.98297844 1.12828394
v -0.55480178 -7.79305842 1.14338291
v -0.57959178 -7.78982487 1.14338309
v -0.73480246 -8.97974488 1.12828377
v -1.48422141 -9.31027244 1.12279404
v -1.48096538 -9.28548538 1.12311879
v -1.97670656 -9.22036484 1.12311989
v -1.97996259 -9.24515190 1.12279514
v -1.63725468 -10.47526421 1.10727216
v -1.48096538 -9.28548538 1.12311879
v -1.50575244 -9.28222935 1.12311884
v -1.66204174 -10.47200818 1.10727216
v -2.10820880 -10.41339969 1.10727212
v -1.95191950 -9.22362087 1.12311983
v -1.97670656 -9.22036484 1.12311989
v -2.13299586 -10.41014366 1.10727212
v -0.50287569 -11.05261891 1.10154320
v -0.49962858 -11.02783068 1.10188203
v -0.99539315 -10.96288848 1.10188022
v -0.99864026 -10.98767671 1.10154140
v -0.65548987 -12.21766565 1.08538975
v -0.49962858 -11.02783068 1.10188203
v -0.52441681 -11.02458357 1.10188194
v -0.68027810 -12.21441854 1.08538993
v -1.12646622 -12.15597056 1.08539311
v -0.97060492 -10.96613559 1.10188031
v -0.99539315 -10.96288848 1.10188022
v -1.15125444 -12.15272345 1.08539328
v -1.90040387 -12.48379435 1.07945324
v -1.89719707 -12.45900087 1.07980397
v -2.39306658 -12.39486486 1.07979905
v -2.39627338 -12.41965834 1.07944831
v -2.05112350 -13.64908770 1.06279548
v -1.89719707 -12.45900087 1.07980397
v -1.92199054 -12.45579407 1.07980373
v -2.07591697 -13.64588090 1.06279578
v -2.52219953 -13.58815849 1.06280127
v -2.36827310 -12.39807166 1.07979930
v -2.39306658 -12.39486486 1.07979905
v -2.54699301 -13.58495169 1.06280157
v -0.91476255 -14.22212669 1.05669642
v -0.91162748 -14.19732404 1.05705918
v -1.40768042 -14.13462259 1.05704961
v -1.41081550 -14.15942523 1.05668822
v -1.06211096 -15.38785112 1.03958209
v -0.91162748 -14.19732404 1.05705918
v -0.93643012 -14.19418897 1.05705870
v -1.08691361 -15.38471604 1.03958265
v -1.53336126 -15.32828474 1.03959278
v -1.38287778 -14.13775766 1.05705008
v -1.40768042 -14.13462259 1.05704961
v -1.55816391 -15.32514966 1.03959334
v -2.30535305 -15.66055413 1.03335334
v -2.30232117 -15.63573866 1.03372119
v -2.79863062 -15.57510096 1.03370962
v -2.80166250 -15.59991644 1.03334176
v -2.44785164 -16.82688134 1.01598045
v -2.30232117 -15.63573866 1.03372119
v -2.32713664 -15.63270678 1.03372061
v -2.47266711 -16.82384945 1.01598109
v -2.91934561 -16.76927553 1.01599262
v -2.77381514 -15.57813285 1.03371020
v -2.79863062 -15.57510096 1.03370962
v -2.94416109 -16.76624364 1.01599326
v -1.30665998 -17.38982373 1.00966493
v -1.30376279 -17.36499217 1.01004234
v -1.80039397 -17.30704844 1.01002475
v -1.80329115 -17.33188000 1.00964994
v -1.44282774 -18.55690699 0.99201586
v -1.30376279 -17.36499217 1.01004234
v -1.32859435 -17.36209499 1.01004146
v -1.46765930 -18.55400981 0.99201682
v -1.91462736 -18.50186045 0.99203394
v -1.77556241 -17.30994563 1.01002563
v -1.80039397 -17.30704844 1.01002475
v -1.93945892 -18.49896326 0.99203489
v -2.68238077 -18.84124915 0.98566136
v -2.67955999 -18.81640880 0.98603721
v -3.17636709 -18.75999329 0.98603512
v -3.17918786 -18.78483365 0.98565927
v -2.81495720 -20.00874583 0.96797940
v -2.67955999 -18.81640880 0.98603721
v -2.70440035 -18.81358802 0.98603710
v -2.83979756 -20.00592505 0.96797952
v -3.28692395 -19.95515110 0.96798173
v -3.15152673 -18.76281407 0.98603522
v -3.17636709 -18.75999329 0.98603512
v -3.31176430 -19.95233032 0.96798185
v -1.67031679 -20.56577451 0.96158123
v -1.66751587 -20.54093190 0.96195765
v -2.16436790 -20.48491348 0.96195559
v -2.16716882 -20.50975608 0.96157917
v -1.80196009 -21.73337677 0.94390174
v -1.66751587 -20.54093190 0.96195765
v -1.69235847 -20.53813098 0.96195755
v -1.82680269 -21.73057585 0.94390186
v -2.27396951 -21.68015927 0.94390403
v -2.13952530 -20.48771440 0.96195569
v -2.16436790 -20.48491348 0.96195559
v -2.29881212 -21.67735834 0.94390415
v -3.04187374 -22.02155086 0.93752863
v -3.03909239 -21.99670606 0.93790335
v -3.53598840 -21.94107913 0.93790133
v -3.53876975 -21.96592393 0.93752661
v -3.17259702 -23.18925649 0.91998020
v -3.03909239 -21.99670606 0.93790335
v -3.06393719 -21.99392472 0.93790325
v -3.19744182 -23.18647514 0.91998032
v -3.64464823 -23.13641090 0.91998244
v -3.51114360 -21.94386048 0.93790143
v -3.53598840 -21.94107913 0.93790133
v -3.66949303 -23.13362956 0.91998256
v -2.02708115 -23.74448630 0.91366904
v -2.02431910 -23.71963935 0.91403977
v -2.52125816 -23.66439833 0.91403780
v -2.52402021 -23.68924528 0.91366707
v -2.15689756 -24.91229310 0.89633784
v -2.02431910 -23.71963935 0.91403977
v -2.04916606 -23.71687730 0.91403967
v -2.18174451 -24.90953104 0.89633796
v -2.62898966 -24.85981412 0.89634001
v -2.49641121 -23.66716038 0.91403790
v -2.52125816 -23.66439833 0.91403780
v -2.65383662 -24.85705207 0.89634013
v -3.39636303 -25.20239827 0.89012920
v -3.39361999 -25.17754921 0.89049367
v -3.89060118 -25.12268850 0.89049175
v -3.89334422 -25.14753756 0.89012729
v -3.52528569 -26.37030406 0.87314045
v -3.39361999 -25.17754921 0.89049367
v -3.41846905 -25.17480617 0.89049357
v -3.55013475 -26.36756103 0.87314056
v -3.99741782 -26.31818639 0.87314255
v -3.86575212 -25.12543153 0.89049185
v -3.89060118 -25.12268850 0.89049175
v -4.02226688 -26.31544335 0.87314266
v -2.37892224 -26.92378553 0.86706585
v -2.37619794 -26.89893440 0.86742221
v -2.87322035 -26.84444842 0.86742037
v -2.87594465 -26.86929954 0.86706401
v -2.50696429 -28.09178819 0.85046518
v -2.37619794 -26.89893440 0.86742221
v -2.40104906 -26.89621011 0.86742212
v -2.53181542 -28.08906389 0.85046529
v -2.97913559 -28.04002651 0.85046719
v -2.84836923 -26.84717272 0.86742046
v -2.87322035 -26.84444842 0.86742037
v -3.00398671 -28.03730221 0.85046730
v -3.74599180 -28.38376767 0.84454280
v -3.74328595 -28.35891453 0.84489014
v -4.24034869 -28.30479768 0.84488837
v -4.24305453 -28.32965082 0.84454103
v -3.87316639 -29.55186510 0.82839110
v -3.74328595 -28.35891453 0.84489014
v -3.76813909 -28.35620869 0.84489005
v -3.89801953 -29.54915926 0.82839120
v -4.34537599 -29.50045410 0.82839302
v -4.21549556 -28.30750352 0.84488846
v -4.24034869 -28.30479768 0.84488837
v -4.37022913 -29.49774825 0.82839312
v -2.72598299 -30.10364883 0.82263435
v -2.72329533 -30.07879373 0.82297179
v -3.22039751 -30.02504042 0.82297010
v -3.22308518 -30.04989553 0.82263266
v -2.85230327 -31.27183897 0.80695520
v -2.72329533 -30.07879373 0.82297179
v -2.74815044 -30.07610606 0.82297170
v -2.87715838 -31.26915130 0.80695529
v -3.32455035 -31.22077332 0.80695704
v -3.19554240 -30.02772808 0.82297018
v -3.22039751 -30.02504042 0.82297010
v -3.34940546 -31.21808566 0.80695713
v -4.09090326 -31.56563603 0.80138083
v -4.08823349 -31.54077900 0.80170746
v -4.58537425 -31.48738363 0.80170585
v -4.58804402 -31.51224067 0.80137922
v -4.21638237 -32.73391682 0.78623339
v -4.08823349 -31.54077900 0.80170746
v -4.11309053 -31.53810923 0.80170738
v -4.24123941 -32.73124705 0.78623348
v -4.68866609 -32.68319122 0.78623513
v -4.56051722 -31.49005340 0.80170593
v -4.58537425 -31.48738363 0.80170585
v -4.71352313 -32.68052145 0.78623523
vn -0.00081677 -0.00781623 0.99996912
vn -0.00081658 -0.00781471 0.99996913
vn -0.00083078 -0.00792776 0.99996823
vn -0.00083097 -0.00792928 0.99996822
vn -0.00098320 -0.00881583 0.99996066
vn -0.00098320 -0.00881586 0.99996066
vn -0.00098308 -0.00881513 0.99996066
vn -0.00098308 -0.00881510 0.99996066
vn -0.00106329 -0.00915361 0.99995754
vn -0.00102210 -0.00915743 0.99995755
vn -0.00102266 -0.00915738 0.99995755
vn -0.00106385 -0.00915355 0.99995754
vn -0.00106517 -0.00917009 0.99995739
vn -0.00102398 -0.00917391 0.99995739
vn -0.00102454 -0.00917386 0.99995739
vn -0.00106573 -0.00917004 0.99995739
vn -0.00115930 -0.00985171 0.99995080
vn -0.00115892 -0.00984948 0.99995082
vn -0.00117053 -0.00991741 0.99995014
vn -0.00117091 -0.00991964 0.99995011
vn -0.00123877 -0.01014887 0.99994773
vn -0.00119534 -0.01015317 0.99994774
vn -0.00119593 -0.01015311 0.99994774
vn -0.00123935 -0.01014882 0.99994773
vn -0.00124085 -0.01016625 0.99994755
vn -0.00119743 -0.01017054 0.99994756
vn -0.00119801 -0.01017048 0.99994756
vn -0.00124144 -0.01016619 0.99994755
vn -0.00131844 -0.01069855 0.99994190
vn -0.00131845 -0.01069857 0.99994190
vn -0.00131838 -0.01069818 0.99994190
vn -0.00131838 -0.01069817 0.99994190
vn -0.00138452 -0.01098115 0.99993875
vn -0.00135409 -0.01098431 0.99993875
vn -0.00135450 -0.01098426 0.99993875
vn -0.00138493 -0.01098111 0.99993875
vn -0.00138604 -0.01099333 0.99993861
vn -0.00135561 -0.01099648 0.99993862
vn -0.00135602 -0.01099644 0.99993862
vn -0.00138644 -0.01099328 0.99993861
vn -0.00146015 -0.01151277 0.99993266
vn -0.00145970 -0.01151024 0.99993269
vn -0.00147349 -0.01158712 0.99993178
vn -0.00147395 -0.01158964 0.99993175
vn -0.00152427 -0.01179076 0.99992932
vn -0.00150008 -0.01179335 0.99992933
vn -0.00150040 -0.01179331 0.99992933
vn -0.00152459 -0.01179072 0.99992932
vn -0.00152569 -0.01180211 0.99992919
vn -0.00149917 -0.01180495 0.99992920
vn -0.00149953 -0.01180491 0.99992920
vn -0.00152605 -0.01180207 0.99992919
vn -0.00158862 -0.01223679 0.99992387
vn -0.00158862 -0.01223680 0.99992387
vn -0.00158860 -0.01223667 0.99992387
vn -0.00158860 -0.01223667 0.99992387
vn -0.00162657 -0.01247084 0.99992091
vn -0.00161925 -0.01247164 0.99992091
vn -0.00161935 -0.01247163 0.99992091
vn -0.00162667 -0.01247083 0.99992091
vn -0.00163379 -0.01247524 0.99992085
vn -0.00161992 -0.01247676 0.99992085
vn -0.00162011 -0.01247674 0.99992085
vn -0.00163398 -0.01247522 0.99992085
vn -0.00168952 -0.01287860 0.99991564
vn -0.00168952 -0.01287860 0.99991564
vn -0.00168951 -0.01287857 0.99991564
vn -0.00168951 -0.01287857 0.99991564
vn -0.00171981 -0.01309194 0.99991282
vn -0.00171757 -0.01309219 0.99991282
vn -0.00171760 -0.01309218 0.99991282
vn -0.00171984 -0.01309194 0.99991282
vn -0.00171993 -0.01309283 0.99991281
vn -0.00171769 -0.01309308 0.99991281
vn -0.00171772 -0.01309308 0.99991281
vn -0.00171996 -0.01309283 0.99991281
vn -0.00176374 -0.01343651 0.99990817
vn -0.00176374 -0.01343651 0.99990817
vn -0.00176375 -0.01343655 0.99990817
vn -0.00176375 -0.01343655 0.99990817
vn -0.00177801 -0.01362654 0.99990557
vn -0.00178848 -0.01362539 0.99990557
vn -0.00178834 -0.01362540 0.99990557
vn -0.00177787 -0.01362655 0.99990557
vn -0.00177746 -0.01362235 0.99990563
vn -0.00178794 -0.01362120 0.99990563
vn -0.00178780 -0.01362122 0.99990563
vn -0.00177732 -0.01362237 0.99990563
vn -0.00180916 -0.01391086 0.99990160
vn -0.00180916 -0.01391086 0.99990160
vn -0.00180918 -0.01391095 0.99990160
vn -0.00180918 -0.01391095 0.99990160
vn -0.00180605 -0.01405632 0.99989957
vn -0.00182767 -0.01405398 0.99989957
vn -0.00182738 -0.01405401 0.99989957
vn -0.00180576 -0.01405635 0.99989957
vn -0.00180493 -0.01404767 0.99989970
vn -0.00182656 -0.01404533 0.99989969
vn -0.00182626 -0.01404536 0.99989969
vn -0.00180464 -0.01404770 0.99989970
vn -0.00183815 -0.01439028 0.99989477
vn -0.00183845 -0.01439200 0.99989474
vn -0.00182916 -0.01433967 0.99989551
vn -0.00182886 -0.01433795 0.99989553
vn -0.00180432 -0.01444964 0.99989397
vn -0.00184519 -0.01444534 0.99989396
vn -0.00184464 -0.01444540 0.99989396
vn -0.00180377 -0.01444970 0.99989397
vn -0.00180225 -0.01443329 0.99989421
vn -0.00184313 -0.01442899 0.99989420
vn -0.00184258 -0.01442904 0.99989420
vn -0.00180170 -0.01443335 0.99989421
vn -0.00180726 -0.01460128 0.99989176
vn -0.00180726 -0.01460128 0.99989176
vn -0.00180728 -0.01460140 0.99989176
vn -0.00180728 -0.01460140 0.99989176
vn -0.00176783 -0.01467526 0.99989075
vn -0.00181570 -0.01467042 0.99989074
vn -0.00181506 -0.01467048 0.99989074
vn -0.00176719 -0.01467532 0.99989075
vn -0.00176549 -0.01465611 0.99989103
vn -0.00181336 -0.01465127 0.99989102
vn -0.00181272 -0.01465133 0.99989102
vn -0.00176485 -0.01465617 0.99989104
vn -0.00178369 -0.01498576 0.99988612
vn -0.00178423 -0.01498903 0.99988607
vn -0.00176756 -0.01488960 0.99988758
vn -0.00176702 -0.01488633 0.99988763
vn -0.00170367 -0.01492197 0.99988721
vn -0.00177561 -0.01491509 0.99988719
vn -0.00177464 -0.01491518 0.99988719
vn -0.00170270 -0.01492206 0.99988721
vn -0.00170031 -0.01489319 0.99988764
vn -0.00177225 -0.01488631 0.99988762
vn -0.00177128 -0.01488640 0.99988762
vn -0.00169935 -0.01489328 0.99988764
vn -0.00170025 -0.01493579 0.99988701
vn -0.00170025 -0.01493579 0.99988701
vn -0.00170025 -0.01493579 0.99988701
vn -0.00170025 -0.01493579 0.99988701
vn -0.00169293 -0.01495074 0.99988680
vn -0.00170185 -0.01494991 0.99988680
vn -0.00170173 -0.01494993 0.99988680
vn -0.00169281 -0.01495075 0.99988680
vn -0.00169253 -0.01494717 0.99988685
vn -0.00170145 -0.01494634 0.99988685
vn -0.00170133 -0.01494636 0.99988685
vn -0.00169241 -0.01494718 0.99988685
vn -0.00169083 -0.01495991 0.99988666
vn -0.00169083 -0.01495991 0.99988666
vn -0.00169083 -0.01495991 0.99988666
vn -0.00169083 -0.01495991 0.99988666
vn -0.00168089 -0.01495051 0.99988682
vn -0.00168968 -0.01494971 0.99988682
vn -0.00168956 -0.01494972 0.99988682
vn -0.00168077 -0.01495052 0.99988682
vn -0.00168049 -0.01494700 0.99988688
vn -0.00168928 -0.01494619 0.99988687
vn -0.00168916 -0.01494620 0.99988687
vn -0.00168037 -0.01494701 0.99988688
vn -0.00167137 -0.01489342 0.99988769
vn -0.00167137 -0.01489342 0.99988769
vn -0.00167137 -0.01489341 0.99988769
vn -0.00167137 -0.01489341 0.99988769
vn -0.00165691 -0.01484191 0.99988848
vn -0.00166552 -0.01484113 0.99988848
vn -0.00166540 -0.01484114 0.99988848
vn -0.00165680 -0.01484192 0.99988848
vn -0.00165653 -0.01483847 0.99988853
vn -0.00166513 -0.01483768 0.99988853
vn -0.00166501 -0.01483770 0.99988853
vn -0.00165641 -0.01483848 0.99988853
vn -0.00164210 -0.01473634 0.99989007
vn -0.00164210 -0.01473634 0.99989007
vn -0.00164209 -0.01473632 0.99989007
vn -0.00164209 -0.01473632 0.99989007
vn -0.00162516 -0.01466002 0.99989122
vn -0.00163353 -0.01465927 0.99989121
vn -0.00163342 -0.01465928 0.99989121
vn -0.00162505 -0.01466003 0.99989122
vn -0.00162479 -0.01465667 0.99989127
vn -0.00163316 -0.01465592 0.99989126
vn -0.00163304 -0.01465593 0.99989126
vn -0.00162468 -0.01465668 0.99989127
vn -0.00160320 -0.01448851 0.99989375
vn -0.00160320 -0.01448852 0.99989375
vn -0.00160320 -0.01448849 0.99989375
vn -0.00160320 -0.01448849 0.99989375
vn -0.00158223 -0.01437250 0.99989546
vn -0.00159031 -0.01437178 0.99989546
vn -0.00159021 -0.01437179 0.99989546
vn -0.00158212 -0.01437251 0.99989546
vn -0.00158187 -0.01436926 0.99989551
vn -0.00158996 -0.01436854 0.99989550
vn -0.00158985 -0.01436855 0.99989550
vn -0.00158176 -0.01436927 0.99989551
vn -0.00155684 -0.01416774 0.99989842
vn -0.00155684 -0.01416774 0.99989842
vn -0.00155683 -0.01416771 0.99989842
vn -0.00155683 -0.01416771 0.99989842
vn -0.00153559 -0.01404559 0.99990018
vn -0.00154337 -0.01404490 0.99990017
vn -0.00154327 -0.01404491 0.99990017
vn -0.00153549 -0.01404560 0.99990018
vn -0.00153525 -0.01404248 0.99990022
vn -0.00154303 -0.01404179 0.99990022
vn -0.00154293 -0.01404180 0.99990022
vn -0.00153514 -0.01404249 0.99990022
vn -0.00150713 -0.01381029 0.99990350
vn -0.00150713 -0.01381029 0.99990350
vn -0.00150712 -0.01381026 0.99990350
vn -0.00150712 -0.01381026 0.99990350
vn -0.00148404 -0.01366741 0.99990550
vn -0.00149150 -0.01366676 0.99990549
vn -0.00149140 -0.01366677 0.99990549
vn -0.00148394 -0.01366742 0.99990550
vn -0.00148371 -0.01366443 0.99990554
vn -0.00149117 -0.01366377 0.99990553
vn -0.00149107 -0.01366378 0.99990553
vn -0.00148361 -0.01366444 0.99990554
vn -0.00145429 -0.01341755 0.99990892
vn -0.00145429 -0.01341755 0.99990892
vn -0.00145428 -0.01341752 0.99990892
vn -0.00145428 -0.01341752 0.99990892
vn -0.00143101 -0.01326888 0.99991094
vn -0.00143814 -0.01326826 0.99991094
vn -0.00143805 -0.01326827 0.99991094
vn -0.00143092 -0.01326889 0.99991094
vn -0.00143071 -0.01326603 0.99991098
vn -0.00143783 -0.01326541 0.99991098
vn -0.00143774 -0.01326541 0.99991098
vn -0.00143061 -0.01326604 0.99991098
vn -0.00139835 -0.01298923 0.99991466
vn -0.00139835 -0.01298923 0.99991466
vn -0.00139834 -0.01298919 0.99991466
vn -0.00139834 -0.01298919 0.99991466
vn -0.00137338 -0.01282050 0.99991687
vn -0.00138016 -0.01281991 0.99991687
vn -0.00138007 -0.01281992 0.99991687
vn -0.00137329 -0.01282051 0.99991687
vn -0.00137309 -0.01281778 0.99991691
vn -0.00137987 -0.01281720 0.99991690
vn -0.00137978 -0.01281721 0.99991690
vn -0.00137300 -0.01281779 0.99991691
f 1//1 2//2 3//3
f 1//1 3//3 4//4
f 5//5 6//6 7//7
f 5//5 7//7 8//8
f 9//9 10//10 11//11
f 9//9 11//11 12//12
f 13//13 14//14 15//15
f 13//13 15//15 16//16
f 17//17 18//18 19//19
f 17//17 19//19 20//20
f 21//21 22//22 23//23
f 21//21 23//23 24//24
f 25//25 26//26 27//27
f 25//25 27//27 28//28
f 29//29 30//30 31//31
f 29//29 31//31 32//32
f 33//33 34//34 35//35
f 33//33 35//35 36//36
f 37//37 38//38 39//39
f 37//37 39//39 40//40
f 41//41 42//42 43//43
f 41//41 43//43 44//44
f 45//45 46//46 47//47
f 45//45 47//47 48//48
f 49//49 50//50 51//51
f 49//49 51//51 52//52
f 53//53 54//54 55//55
f 53//53 55//55 56//56
f 57//57 58//58 59//59
f 57//57 59//59 60//60
f 61//61 62//62 63//63
f 61//61 63//63 64//64
f 65//65 66//66 67//67
f 65//65 67//67 68//68
f 69//69 70//70 71//71
f 69//69 71//71 72//72
f 73//73 74//74 75//75
f 73//73 75//75 76//76
f 77//77 78//78 79//79
f 77//77 79//79 80//80
f 81//81 82//82 83//83
f 81//81 83//83 84//84
f 85//85 86//86 87//87
f 85//85 87//87 88//88
f 89//89 90//90 91//91
f 89//89 91//91 92//92
f 93//93 94//94 95//95
f 93//93 95//95 96//96
f 97//97 98//98 99//99
f 97//97 99//99 100//100
f 101//101 102//102 103//103
f 101//101 103//103 104//104
f 105//105 106//106 107//107
f 105//105 107//107 108//108
f 109//109 110//110 111//111
f 109//109 111//111 112//112
f 113//113 114//114 115//115
f 113//113 115//115 116//116
f 117//117 118//118 119//119
f 117//117 119//119 120//120
f 121//121 122//122 123//123
f 121//121 123//123 124//124
f 125//125 126//126 127//127
f 125//125 127//127 128//128
f 129//129 130//130 131//131
f 129//129 131//131 132//132
f 133//133 134//134 135//135
f 133//133 135//135 136//136
f 137//137 138//138 139//139
f 137//137 139//139 140//140
f 141//141 142//142 143//143
f 141//141 143//143 144//144
f 145//145 146//146 147//147
f 145//145 147//147 148//148
f 149//149 150//150 151//151
f 149//149 151//151 152//152
f 153//153 154//154 155//155
f 153//153 155//155 156//156
f 157//157 158//158 159//159
f 157//157 159//159 160//160
f 161//161 162//162 163//163
f 161//161 163//163 164//164
f 165//165 166//166 167//167
f 165//165 167//167 168//168
f 169//169 170//170 171//171
f 169//169 171//171 172//172
f 173//173 174//174 175//175
f 173//173 175//175 176//176
f 177//177 178//178 179//179
f 177//177 179//179 180//180
f 181//181 182//182 183//183
f 181//181 183//183 184//184
f 185//185 186//186 187//187
f 185//185 187//187 188//188
f 189//189 190//190 191//191
f 189//189 191//191 192//192
f 193//193 194//194 195//195
f 193//193 195//195 196//196
f 197//197 198//198 199//199
f 197//197 199//199 200//200
f 201//201 202//202 203//203
f 201//201 203//203 204//204
f 205//205 206//206 207//207
f 205//205 207//207 208//208
f 209//209 210//210 211//211
f 209//209 211//211 212//212
f 213//213 214//214 215//215
f 213//213 215//215 216//216
f 217//217 218//218 219//219
f 217//217 219//219 220//220
f 221//221 222//222 223//223
f 221//221 223//223 224//224
f 225//225 226//226 227//227
f 225//225 227//227 228//228
f 229//229 230//230 231//231
f 229//229 231//231 232//232
f 233//233 234//234 235//235
f 233//233 235//235 236//236
f 237//237 238//238 239//239
f 237//237 239//239 240//240
f 241//241 242//242 243//243
f 241//241 243//243 244//244
